<svg width="871" height="875" viewBox="0 0 871 875" fill="none" xmlns="http://www.w3.org/2000/svg">
<g clip-path="url(#clip0_964_10)">
<path d="M41.6938 829.308V539.165H0V871.002H185.623V829.308H41.6938ZM555.155 685.95L503.181 826.452L451.207 685.95H405.515L475.195 870.431H531.167L600.847 685.95H555.155ZM829.306 870.431H871V538.594H829.306V870.431ZM354.683 755.63H250.163C264.441 709.367 341.546 708.796 354.683 755.63ZM302.708 681.952C245.593 681.952 205.042 721.361 205.613 778.476C206.184 836.162 245.022 875 304.422 875C342.689 875 379.242 855.581 394.663 810.46H349.542C325.554 854.439 252.447 840.16 249.02 793.897H398.661C406.086 730.499 363.821 681.952 302.708 681.952ZM756.199 755.63H651.679C665.958 709.367 743.063 708.796 756.199 755.63ZM704.225 681.952C647.11 681.952 606.559 721.361 607.13 778.476C607.701 836.162 646.539 875 705.938 875C744.205 875 780.759 855.581 796.18 810.46H751.059C727.071 854.439 653.964 840.16 650.537 793.897H799.607C807.603 730.499 765.338 681.952 704.225 681.952ZM829.306 41.694V498.042H871V0.571289H0V498.042H41.6938V41.694H829.306Z" fill="black"/>
</g>
<defs>
<clipPath id="clip0_964_10">
<rect width="871" height="875" fill="white"/>
</clipPath>
</defs>
</svg>
