<?xml version="1.0" encoding="UTF-8"?> <svg xmlns="http://www.w3.org/2000/svg" width="2394" height="322" viewBox="0 0 2394 322" fill="none"><g clip-path="url(#clip0_167_2)"><path d="M521.685 197.209H479.15C504.065 194.023 525.377 184.991 543.282 170.291C566.481 151.154 577.856 127.49 577.856 99.2603C577.856 71.0308 566.481 47.3514 543.282 28.6867C520.547 9.54974 492.338 0 458.228 0H289.018L187.212 229.988L82.7926 0H0V318.724H29.557V57.9805L147.935 318.724H180.667L295.099 60.2068V318.724H364.697V197.209H445.707L513.275 318.724H590.13L521.685 197.209ZM435.006 167.623H364.697V30.898H435.006C472.516 30.898 497.377 57.8306 497.377 99.2603C497.377 140.69 472.508 167.623 435.006 167.623Z" fill="#0A0714"></path><path d="M727.985 214.389C727.985 191.677 734.253 172.248 746.796 156.109C759.34 139.97 777.649 127.617 801.732 119.049C825.815 110.482 854.975 106.201 889.212 106.201C931.013 106.201 964.502 111.883 989.685 123.24C1014.86 134.596 1031.04 150.937 1038.2 172.255L991.924 181.52C986.944 168.372 975.951 158.26 958.93 151.184C941.909 144.116 918.672 140.577 889.212 140.577C850.796 140.577 821.831 146.904 802.331 159.557C782.824 172.21 773.073 190.492 773.073 214.397C773.073 238.301 782.674 256.239 801.889 268.794C821.097 281.35 849.905 287.624 888.329 287.624C919.78 287.624 944.26 283.539 961.776 275.368C979.291 267.198 990.539 255.647 995.511 240.7H882.053V209.322H1042.09V318.709H1007.75L1003.58 275.975C992.83 290.72 977.546 302.076 957.747 310.044C937.94 318.012 913.108 322 883.251 322C850.205 322 822.093 317.772 798.909 309.302C775.717 300.839 758.104 288.583 746.063 272.542C733.999 256.486 727.985 237.109 727.985 214.389Z" fill="#0A0714"></path><path d="M1108.06 318.694V109.492H1290.19C1317.46 109.492 1338.06 115.466 1351.99 127.422C1365.92 139.378 1372.89 155.719 1372.89 176.438C1372.89 197.156 1366.12 212.305 1352.59 224.254C1339.05 236.21 1319.45 242.484 1293.77 243.083L1377.67 318.694H1319.15L1238.83 245.175H1152.25V318.694H1108.06ZM1282.72 142.661H1152.25V211.998H1282.73C1312.99 211.998 1328.11 200.447 1328.11 177.33C1328.11 154.22 1312.98 142.661 1282.72 142.661Z" fill="#0A0714"></path><path d="M1572.04 321.985C1538.2 321.985 1509.39 317.705 1485.6 309.137C1461.81 300.569 1443.7 288.269 1431.26 272.227C1418.82 256.194 1412.6 237.012 1412.6 214.697C1412.6 192.381 1418.81 172.51 1431.26 156.266C1443.7 140.03 1461.76 127.625 1485.45 119.057C1509.14 110.489 1538 106.209 1572.04 106.209C1606.08 106.209 1634.99 110.497 1658.77 119.057C1682.56 127.625 1700.67 139.978 1713.12 156.116C1725.56 172.255 1731.78 191.684 1731.78 214.397C1731.78 237.109 1725.56 256.194 1713.12 272.227C1700.67 288.269 1682.56 300.577 1658.77 309.137C1634.99 317.705 1606.08 321.985 1572.04 321.985ZM1572.04 287.616C1610.06 287.616 1638.67 281.29 1657.88 268.637C1677.09 255.984 1686.7 237.904 1686.7 214.389C1686.7 190.875 1677.09 172.45 1657.88 159.699C1638.67 146.949 1610.06 140.57 1572.04 140.57C1534.02 140.57 1505.71 146.994 1486.5 159.849C1467.29 172.697 1457.69 190.98 1457.69 214.689C1457.69 238.399 1467.29 256.231 1486.5 268.787C1505.71 281.335 1534.23 287.616 1572.04 287.616Z" fill="#0A0714"></path><path d="M2061.7 214.689C2061.7 248.96 2049.46 275.413 2024.98 294.04C2000.5 312.675 1965.96 321.985 1921.37 321.985C1876.79 321.985 1842.59 312.675 1818.22 294.04C1793.84 275.413 1781.64 248.96 1781.64 214.689V109.492H1826.13V213.497C1826.13 238.001 1834.2 256.486 1850.31 268.937C1866.44 281.387 1890.12 287.616 1921.37 287.616C1952.62 287.616 1976.95 281.395 1993.18 268.937C2009.4 256.486 2017.51 238.001 2017.51 213.497V109.492H2061.7V214.689Z" fill="#0A0714"></path><path d="M2126.77 318.694V109.492H2304.72C2332.79 109.492 2354.68 116.171 2370.41 129.514C2386.13 142.864 2394 161.094 2394 184.203C2394 207.313 2386.08 225.198 2370.26 238.451C2354.44 251.704 2332.29 258.323 2303.83 258.323H2170.97V318.694H2126.77ZM2297.26 143.861H2170.96V223.954H2297.26C2314.37 223.954 2327.26 220.521 2335.92 213.647C2344.58 206.773 2348.9 196.961 2348.9 184.211C2348.91 157.308 2331.7 143.861 2297.26 143.861Z" fill="#0A0714"></path></g><defs><clipPath id="clip0_167_2"><rect width="2394" height="322" fill="white"></rect></clipPath></defs></svg> 